<svg width="111" height="24" viewBox="0 0 111 24" fill="none" xmlns="http://www.w3.org/2000/svg">
<path d="M4.74219 7.31836V15.166H8.66602C9.20378 15.166 9.70964 15.0658 10.1836 14.8652C10.6576 14.6556 11.0723 14.373 11.4277 14.0176C11.7832 13.6621 12.0612 13.2474 12.2617 12.7734C12.4714 12.2904 12.5762 11.7799 12.5762 11.2422C12.5762 10.7044 12.4714 10.1986 12.2617 9.72461C12.0612 9.24154 11.7832 8.82227 11.4277 8.4668C11.0723 8.11133 10.6576 7.83333 10.1836 7.63281C9.70964 7.42318 9.20378 7.31836 8.66602 7.31836H4.74219ZM4.74219 23H0.818359V3.39453H8.66602C9.38607 3.39453 10.0788 3.49023 10.7441 3.68164C11.4095 3.86393 12.0293 4.12826 12.6035 4.47461C13.1868 4.81185 13.7155 5.22201 14.1895 5.70508C14.6725 6.17904 15.0827 6.70768 15.4199 7.29102C15.7663 7.87435 16.0306 8.4987 16.2129 9.16406C16.4043 9.82943 16.5 10.5221 16.5 11.2422C16.5 12.3177 16.2949 13.334 15.8848 14.291C15.4746 15.2389 14.9141 16.0684 14.2031 16.7793C13.4922 17.4902 12.6582 18.0508 11.7012 18.4609C10.7533 18.8711 9.74154 19.0762 8.66602 19.0762H4.74219V23ZM32.5645 15.5488C32.5645 16.6426 32.3685 17.6634 31.9766 18.6113C31.5846 19.5501 31.0514 20.3659 30.377 21.0586C29.7025 21.7422 28.9095 22.2845 27.998 22.6855C27.0957 23.0775 26.125 23.2734 25.0859 23.2734C24.056 23.2734 23.0853 23.0775 22.1738 22.6855C21.2715 22.2845 20.4785 21.7422 19.7949 21.0586C19.1204 20.3659 18.5872 19.5501 18.1953 18.6113C17.8034 17.6634 17.6074 16.6426 17.6074 15.5488C17.6074 14.4368 17.8034 13.4069 18.1953 12.459C18.5872 11.5111 19.1204 10.6953 19.7949 10.0117C20.4785 9.31901 21.2715 8.77669 22.1738 8.38477C23.0853 7.99284 24.056 7.79688 25.0859 7.79688C26.125 7.79688 27.0957 7.98372 27.998 8.35742C28.9095 8.72201 29.7025 9.24609 30.377 9.92969C31.0514 10.6042 31.5846 11.4199 31.9766 12.377C32.3685 13.3249 32.5645 14.3822 32.5645 15.5488ZM28.8047 15.5488C28.8047 14.9473 28.7044 14.4049 28.5039 13.9219C28.3125 13.4297 28.0482 13.0104 27.7109 12.6641C27.3737 12.3086 26.9772 12.0397 26.5215 11.8574C26.0749 11.666 25.5964 11.5703 25.0859 11.5703C24.5755 11.5703 24.0924 11.666 23.6367 11.8574C23.1901 12.0397 22.7982 12.3086 22.4609 12.6641C22.1328 13.0104 21.873 13.4297 21.6816 13.9219C21.4902 14.4049 21.3945 14.9473 21.3945 15.5488C21.3945 16.1139 21.4902 16.638 21.6816 17.1211C21.873 17.6042 22.1328 18.0234 22.4609 18.3789C22.7982 18.7344 23.1901 19.0169 23.6367 19.2266C24.0924 19.4271 24.5755 19.5273 25.0859 19.5273C25.5964 19.5273 26.0749 19.4316 26.5215 19.2402C26.9772 19.0488 27.3737 18.7799 27.7109 18.4336C28.0482 18.0872 28.3125 17.668 28.5039 17.1758C28.7044 16.6836 28.8047 16.1413 28.8047 15.5488ZM38.3887 23H34.6289V2.5332H38.3887V15.4395L43.9531 8.38477H48.2461L43.3926 14.4824L48.2461 23H43.9531L40.9863 17.6816L38.3887 21.127V23ZM55.5469 19.418C55.6927 19.4635 55.8385 19.4954 55.9844 19.5137C56.1302 19.5228 56.276 19.5273 56.4219 19.5273C56.7865 19.5273 57.1374 19.4772 57.4746 19.377C57.8118 19.2767 58.1263 19.1354 58.418 18.9531C58.7188 18.7617 58.9831 18.5339 59.2109 18.2695C59.4479 17.9961 59.6393 17.6953 59.7852 17.3672L62.5195 20.1152C62.1732 20.6074 61.7721 21.0495 61.3164 21.4414C60.8698 21.8333 60.3822 22.166 59.8535 22.4395C59.334 22.7129 58.7826 22.918 58.1992 23.0547C57.625 23.2005 57.0326 23.2734 56.4219 23.2734C55.3919 23.2734 54.4212 23.082 53.5098 22.6992C52.6074 22.3164 51.8145 21.7832 51.1309 21.0996C50.4564 20.416 49.9232 19.6048 49.5312 18.666C49.1393 17.7181 48.9434 16.679 48.9434 15.5488C48.9434 14.3913 49.1393 13.334 49.5312 12.377C49.9232 11.4199 50.4564 10.6042 51.1309 9.92969C51.8145 9.25521 52.6074 8.73112 53.5098 8.35742C54.4212 7.98372 55.3919 7.79688 56.4219 7.79688C57.0326 7.79688 57.6296 7.86979 58.2129 8.01562C58.7962 8.16146 59.3477 8.37109 59.8672 8.64453C60.3958 8.91797 60.888 9.25521 61.3438 9.65625C61.7995 10.0482 62.2005 10.4902 62.5469 10.9824L55.5469 19.418ZM57.4609 11.7207C57.2878 11.6569 57.1146 11.6159 56.9414 11.5977C56.7773 11.5794 56.6042 11.5703 56.4219 11.5703C55.9115 11.5703 55.4284 11.666 54.9727 11.8574C54.526 12.0397 54.1341 12.304 53.7969 12.6504C53.4688 12.9967 53.209 13.416 53.0176 13.9082C52.8262 14.3913 52.7305 14.9382 52.7305 15.5488C52.7305 15.6855 52.735 15.8405 52.7441 16.0137C52.7624 16.1868 52.7852 16.3646 52.8125 16.5469C52.849 16.7201 52.89 16.8887 52.9355 17.0527C52.9811 17.2168 53.0404 17.3626 53.1133 17.4902L57.4609 11.7207ZM56.3125 6.67578L54.7676 4.63867L58.8281 0.851562L61.0703 3.70898L56.3125 6.67578ZM80.5391 13.1973C80.5391 14.0996 80.4206 14.9701 80.1836 15.8086C79.9557 16.638 79.6276 17.4173 79.1992 18.1465C78.7708 18.8665 78.2604 19.5273 77.668 20.1289C77.0755 20.7214 76.4147 21.2318 75.6855 21.6602C74.9564 22.0885 74.1725 22.4212 73.334 22.6582C72.5046 22.8861 71.6387 23 70.7363 23H64.8301V3.39453H70.7363C71.6387 3.39453 72.5046 3.51302 73.334 3.75C74.1725 3.97786 74.9564 4.30599 75.6855 4.73438C76.4147 5.16276 77.0755 5.67773 77.668 6.2793C78.2604 6.87174 78.7708 7.53255 79.1992 8.26172C79.6276 8.98177 79.9557 9.76107 80.1836 10.5996C80.4206 11.429 80.5391 12.2949 80.5391 13.1973ZM76.6152 13.1973C76.6152 12.3861 76.4603 11.625 76.1504 10.9141C75.8496 10.2031 75.4303 9.58333 74.8926 9.05469C74.3639 8.51693 73.7396 8.0931 73.0195 7.7832C72.3086 7.47331 71.5475 7.31836 70.7363 7.31836H68.7812V19.0762H70.7363C71.5475 19.0762 72.3086 18.9258 73.0195 18.625C73.7396 18.3151 74.3639 17.8958 74.8926 17.3672C75.4303 16.8294 75.8496 16.2051 76.1504 15.4941C76.4603 14.7741 76.6152 14.0085 76.6152 13.1973ZM88.5781 19.418C88.724 19.4635 88.8698 19.4954 89.0156 19.5137C89.1615 19.5228 89.3073 19.5273 89.4531 19.5273C89.8177 19.5273 90.1686 19.4772 90.5059 19.377C90.8431 19.2767 91.1576 19.1354 91.4492 18.9531C91.75 18.7617 92.0143 18.5339 92.2422 18.2695C92.4792 17.9961 92.6706 17.6953 92.8164 17.3672L95.5508 20.1152C95.2044 20.6074 94.8034 21.0495 94.3477 21.4414C93.901 21.8333 93.4134 22.166 92.8848 22.4395C92.3652 22.7129 91.8138 22.918 91.2305 23.0547C90.6562 23.2005 90.0638 23.2734 89.4531 23.2734C88.4232 23.2734 87.4525 23.082 86.541 22.6992C85.6387 22.3164 84.8457 21.7832 84.1621 21.0996C83.4876 20.416 82.9544 19.6048 82.5625 18.666C82.1706 17.7181 81.9746 16.679 81.9746 15.5488C81.9746 14.3913 82.1706 13.334 82.5625 12.377C82.9544 11.4199 83.4876 10.6042 84.1621 9.92969C84.8457 9.25521 85.6387 8.73112 86.541 8.35742C87.4525 7.98372 88.4232 7.79688 89.4531 7.79688C90.0638 7.79688 90.6608 7.86979 91.2441 8.01562C91.8275 8.16146 92.3789 8.37109 92.8984 8.64453C93.4271 8.91797 93.9193 9.25521 94.375 9.65625C94.8307 10.0482 95.2318 10.4902 95.5781 10.9824L88.5781 19.418ZM90.4922 11.7207C90.319 11.6569 90.1458 11.6159 89.9727 11.5977C89.8086 11.5794 89.6354 11.5703 89.4531 11.5703C88.9427 11.5703 88.4596 11.666 88.0039 11.8574C87.5573 12.0397 87.1654 12.304 86.8281 12.6504C86.5 12.9967 86.2402 13.416 86.0488 13.9082C85.8574 14.3913 85.7617 14.9382 85.7617 15.5488C85.7617 15.6855 85.7663 15.8405 85.7754 16.0137C85.7936 16.1868 85.8164 16.3646 85.8438 16.5469C85.8802 16.7201 85.9212 16.8887 85.9668 17.0527C86.0124 17.2168 86.0716 17.3626 86.1445 17.4902L90.4922 11.7207ZM110.809 23H106.242L103.33 18.5156L100.391 23H95.8242L101.17 15.4941L95.8242 8.27539H100.391L103.33 12.4727L106.242 8.27539H110.809L105.449 15.4941L110.809 23Z" fill="white"/>
</svg>
